<?xml version="1.0" standalone="no"?>
<!DOCTYPE svg PUBLIC "-//W3C//DTD SVG 20010904//EN"
 "http://www.w3.org/TR/2001/REC-SVG-20010904/DTD/svg10.dtd">
<svg version="1.0" xmlns="http://www.w3.org/2000/svg"
 width="1024.000000pt" height="1024.000000pt" viewBox="0 0 1024.000000 1024.000000"
 preserveAspectRatio="xMidYMid meet">

<g transform="translate(0.000000,1024.000000) scale(0.100000,-0.100000)"
fill="#000000" stroke="none">
<path d="M3130 5285 c0 -2706 2 -3005 15 -3005 9 0 26 -10 38 -23 43 -43 177
-137 177 -123 0 3 12 0 28 -6 34 -14 222 -37 227 -27 3 3 17 4 32 2 35 -6 58
-5 106 3 33 5 37 9 31 28 -4 11 -11 24 -17 27 -5 4 -7 11 -3 17 3 6 -3 14 -15
17 -12 4 -18 12 -15 20 3 8 -4 17 -15 20 -11 4 -18 9 -15 12 3 3 1 14 -4 24
-6 11 -10 1106 -10 2987 0 1634 -3 2984 -6 3001 l-6 31 -274 0 -274 0 0 -3005z"/>
<path d="M3795 5287 l-1 -3002 26 -26 c14 -15 55 -51 91 -81 80 -67 137 -82
303 -79 81 2 111 -1 117 -11 7 -11 11 -10 20 2 8 11 12 12 16 3 7 -18 23 -16
23 3 0 8 4 13 9 10 18 -11 201 -8 216 4 8 6 18 9 22 7 5 -3 8 11 7 30 -1 20
-7 39 -14 43 -6 4 -11 11 -10 16 0 5 -2 18 -5 29 -4 11 -8 27 -9 35 -2 8 -9
35 -15 59 -7 23 -10 49 -7 56 2 7 2 16 -2 20 -7 7 -8 13 -16 96 -5 66 -16 95
-27 78 -5 -8 -9 714 -10 1696 -2 1467 -7 3964 -8 4003 -1 9 -80 12 -363 12
l-363 0 0 -3003z"/>
<path d="M6383 8143 c-92 -81 -240 -210 -328 -287 -88 -78 -191 -168 -230
-201 -38 -33 -72 -62 -75 -65 -6 -7 -298 -262 -435 -380 -54 -47 -186 -161
-292 -253 l-193 -169 0 -619 c0 -522 2 -619 14 -619 8 0 16 -6 19 -14 10 -26
157 -49 157 -25 0 6 9 9 20 6 13 -3 24 1 30 13 7 12 17 16 31 13 19 -5 21 -3
17 14 -5 17 -1 21 19 18 20 -2 24 1 20 16 -4 14 0 19 15 19 14 0 18 5 14 16
-4 12 -2 15 9 10 8 -3 15 -1 15 4 0 6 10 10 23 10 17 0 19 2 8 9 -12 8 -12 11
0 24 8 8 24 17 36 21 12 4 24 13 27 21 3 8 18 15 33 16 l28 1 -25 8 c-14 4
-19 8 -12 9 6 1 12 9 13 19 0 15 1 14 8 -3 7 -17 9 -17 17 -3 5 8 23 24 40 34
17 11 31 21 31 24 -1 14 25 50 36 50 13 0 41 28 44 44 1 5 15 15 32 24 17 8
31 19 31 24 0 17 30 40 45 35 9 -4 19 5 27 23 7 16 17 26 22 23 5 -4 7 1 3 11
-4 10 -3 15 3 11 5 -3 20 4 32 17 13 13 35 29 51 36 15 6 26 16 25 21 -4 13
61 73 72 66 6 -4 13 1 16 9 3 8 15 18 26 22 16 5 18 8 7 15 -10 6 -8 9 9 9 17
0 27 9 35 31 8 21 17 29 29 25 10 -2 18 1 18 7 0 7 13 21 29 32 16 10 27 23
25 27 -3 4 0 8 7 8 6 0 22 11 35 25 13 14 35 26 49 27 20 2 25 7 22 20 -3 10
-2 16 3 13 4 -3 10 4 13 15 3 11 12 20 21 20 10 0 16 9 17 23 1 21 1 21 8 -3
5 -17 9 -21 15 -12 4 6 5 16 2 20 -3 5 8 16 24 26 17 9 35 26 40 37 6 10 18
19 26 19 8 0 12 5 9 10 -3 6 1 10 9 10 9 0 16 3 16 8 0 4 14 13 30 20 17 8 30
19 29 25 -3 27 2 36 16 31 9 -4 15 0 15 8 0 19 44 39 67 31 15 -5 14 -3 -2 10
-20 17 -12 22 24 17 9 -1 12 5 8 19 -3 11 -2 20 2 19 3 -1 20 4 36 11 22 10
26 15 15 20 -8 3 -16 11 -17 18 -3 14 30 10 35 -5 2 -6 9 -9 17 -6 8 3 11 12
8 20 -3 8 0 14 7 14 6 0 8 4 5 10 -3 6 1 7 9 4 9 -3 16 -1 16 5 0 6 -6 11 -12
11 -9 0 -8 4 2 10 8 5 20 10 25 10 6 0 3 -5 -5 -10 -8 -5 -10 -10 -4 -10 16 0
35 25 26 36 -4 4 1 2 10 -5 15 -11 19 -10 29 13 7 14 16 23 20 20 5 -3 6 3 2
13 -6 16 -5 16 10 4 15 -12 16 -10 11 20 -6 33 -6 33 10 14 17 -20 17 -20 11
2 -5 18 -2 21 14 18 12 -2 21 0 21 5 0 5 7 7 16 3 14 -5 16 -1 12 20 -3 15 -1
24 4 21 5 -4 23 6 39 22 16 15 29 24 29 20 0 -5 7 -3 15 4 8 7 12 16 9 21 -5
8 9 13 29 10 4 0 7 3 7 8 0 5 16 19 35 31 19 12 33 26 29 31 -3 5 0 9 7 9 7 0
27 11 45 25 18 14 40 25 48 25 22 0 20 20 -1 20 -10 1 2 10 26 21 31 15 40 23
31 29 -9 6 -5 9 14 12 14 2 26 7 26 11 -2 13 58 67 75 67 8 0 15 5 15 11 0 6
6 17 14 25 8 8 19 14 25 14 6 0 11 7 11 15 0 8 9 15 20 15 11 0 20 5 20 11 0
14 25 39 39 39 6 0 11 6 11 14 0 8 8 13 18 12 10 0 16 6 16 17 -1 10 5 17 15
17 23 0 94 66 86 80 -3 5 1 10 10 10 27 0 49 28 36 44 -7 8 -11 18 -10 22 1 5
-4 23 -11 39 -7 17 -12 42 -11 57 1 14 -2 29 -8 33 -6 3 -11 21 -11 38 0 18
-7 57 -15 87 -9 30 -17 62 -19 70 -3 8 -5 41 -5 73 l-1 57 -525 0 -524 0 -168
-147z m373 -1150 c-8 -15 -15 -25 -16 -21 0 12 23 58 27 54 3 -2 -2 -17 -11
-33z"/>
<path d="M6637 6403 c-325 -286 -959 -845 -982 -866 -11 -11 -60 -53 -109 -95
-166 -143 -272 -237 -594 -525 l-122 -110 2 -520 3 -521 265 -254 c579 -557
1309 -1250 1370 -1303 106 -91 168 -120 275 -124 22 -1 50 -7 62 -13 12 -7 34
-11 50 -11 21 1 23 3 8 6 -11 3 -24 9 -29 13 -5 5 9 4 30 -1 22 -5 84 -11 139
-14 55 -2 111 -5 125 -7 14 -3 31 0 38 5 8 7 17 6 24 -1 9 -9 15 -9 26 0 11
10 16 8 24 -5 5 -10 13 -15 18 -12 17 10 110 13 116 4 3 -6 10 -6 17 -1 18 14
168 9 196 -7 21 -12 23 -11 18 3 -5 13 -3 15 12 7 10 -6 22 -7 26 -3 3 4 27 8
52 8 27 1 51 8 61 18 16 16 16 17 -1 10 -15 -5 -16 -3 -8 19 7 17 5 32 -5 53
-9 16 -13 39 -11 51 2 13 0 23 -4 23 -5 0 -9 11 -9 25 0 39 -57 184 -87 223
-16 20 -30 44 -33 54 -5 16 -470 470 -956 933 -104 100 -332 317 -506 484
-175 166 -318 305 -318 309 0 3 5 1 11 -5 6 -6 19 -9 28 -6 23 8 91 75 85 84
-2 4 4 6 15 4 11 -2 22 3 25 11 4 10 2 12 -6 8 -7 -5 -8 -3 -4 5 5 7 10 10 13
7 7 -6 63 32 62 42 -3 20 3 23 18 11 9 -8 14 -9 10 -2 -11 18 3 43 24 43 10 0
18 5 17 11 -3 11 41 44 75 55 10 4 16 13 13 20 -4 9 2 14 17 14 18 0 19 2 7
10 -13 8 -12 10 3 10 9 0 26 9 37 20 11 11 26 20 33 20 7 0 21 17 31 37 14 29
20 34 27 22 7 -11 9 -10 9 5 0 12 5 16 16 12 10 -4 14 -1 12 6 -5 13 53 68 70
68 5 0 12 7 16 15 3 8 13 15 22 15 10 0 15 3 11 6 -8 8 30 44 48 44 8 0 15 7
15 15 0 8 6 15 13 15 8 0 7 4 -3 11 -13 9 -12 10 3 5 23 -7 77 32 77 56 0 10
7 18 15 18 8 0 15 5 15 12 0 6 3 9 6 5 3 -3 20 7 38 23 17 17 37 30 43 30 7 0
19 13 27 29 9 16 27 32 43 36 15 4 22 10 15 12 -7 3 2 15 24 29 20 14 43 23
50 20 8 -3 14 -1 14 4 0 6 -6 10 -12 10 -7 0 -5 5 5 11 33 20 109 97 104 106
-4 6 7 9 23 8 24 -1 32 4 42 27 7 15 19 28 26 28 7 0 10 5 7 10 -3 6 1 10 9
10 9 0 16 5 16 11 0 6 7 8 16 5 9 -3 12 -2 9 5 -4 6 2 13 13 16 14 3 19 10 15
21 -5 11 -2 14 9 9 10 -3 19 0 22 9 3 8 11 14 18 14 20 0 41 37 25 43 -7 3 -2
6 10 6 12 1 24 7 26 14 4 10 6 10 6 0 2 -22 21 -14 21 7 0 11 7 23 15 26 8 4
15 12 15 20 0 17 12 18 29 2 11 -11 12 -9 6 11 -4 14 -3 21 2 18 5 -3 31 14
58 38 27 25 52 45 57 45 4 0 8 6 8 13 0 6 14 18 31 26 19 8 28 18 25 27 -3 9
2 14 14 14 10 0 26 10 35 23 8 12 18 21 21 19 3 -2 8 -1 12 2 3 3 0 6 -7 6 -7
0 -9 5 -6 11 4 6 13 8 21 5 9 -4 14 2 15 17 2 37 -3 62 -13 68 -6 4 -6 9 2 14
9 6 9 10 -1 16 -12 8 -12 10 0 18 9 6 10 10 2 12 -7 3 -14 27 -16 54 -2 28 -8
61 -13 75 -4 14 -8 41 -6 60 1 19 -3 44 -9 55 -6 11 -12 36 -13 55 -1 19 -9
68 -16 108 -8 39 -12 72 -9 72 3 0 -2 5 -11 11 -13 7 -18 23 -18 59 l0 50
-375 0 -374 0 -214 -187z m400 -4329 c-3 -3 -12 -4 -19 -1 -8 3 -5 6 6 6 11 1
17 -2 13 -5z"/>
<path d="M6854 4738 c-201 -178 -389 -352 -392 -362 -5 -22 482 -475 496 -461
3 2 17 -4 32 -15 16 -11 37 -20 47 -20 11 0 23 -3 27 -7 15 -15 151 -29 142
-14 -4 6 -2 11 3 11 6 0 11 -4 11 -10 0 -5 7 -10 16 -10 8 0 12 5 9 10 -11 17
17 11 32 -7 8 -10 12 -13 9 -6 -4 7 6 11 29 10 19 -1 35 -5 35 -9 0 -5 8 -4
18 1 10 6 27 8 38 6 51 -10 114 -14 110 -6 -3 5 8 7 24 6 17 -1 30 2 30 9 0 7
3 7 8 -1 5 -7 24 -11 50 -8 27 2 42 0 42 -8 0 -6 6 -2 14 8 13 18 13 18 24 -1
10 -17 11 -17 12 -1 0 9 6 17 14 17 9 0 12 9 10 28 -2 15 -1 21 2 14 3 -6 10
-9 16 -6 5 4 0 17 -14 32 -18 20 -19 24 -5 19 15 -6 16 -4 5 16 -7 12 -11 25
-10 30 1 4 -4 7 -11 7 -8 0 -7 4 3 10 12 8 13 11 1 19 -10 6 -10 10 -1 16 8 5
6 11 -7 21 -17 12 -17 13 0 14 9 0 17 5 17 11 0 6 -7 9 -15 5 -8 -3 -15 -1
-15 4 0 6 5 10 11 10 8 0 8 4 0 14 -7 8 -14 45 -17 83 -2 40 -1 63 5 55 5 -9
8 -4 7 16 -1 17 -5 30 -11 29 -9 -2 -24 75 -26 131 -1 12 -6 22 -13 22 -6 0
-4 5 4 10 10 6 11 10 3 10 -8 0 -13 13 -13 32 0 54 -21 151 -41 190 -10 20
-19 46 -19 57 0 21 -4 21 -343 21 l-343 0 -60 -52z"/>
<path d="M4218 2083 c7 -3 16 -2 19 1 4 3 -2 6 -13 5 -11 0 -14 -3 -6 -6z"/>
</g>
</svg>
